# File units = meters
mtllib thin_cone.mtl
g Part 1
v -0.0002 0 0 
v -0.000198828 -2.16238e-05 0 
v -0.000195324 -4.29941e-05 0 
v -0.000189531 -6.38603e-05 0 
v -0.000181515 -8.39778e-05 0 
v -0.000171371 -0.000103111 0 
v -0.000159219 -0.000121035 0 
v -0.000145199 -0.00013754 0 
v -0.000129477 -0.000152432 0 
v -0.000112237 -0.000165538 0 
v -9.36817e-05 -0.000176702 0 
v -7.40276e-05 -0.000185795 0 
v -5.35057e-05 -0.00019271 0 
v -3.23564e-05 -0.000197365 0 
v -1.08278e-05 -0.000199707 0 
v 1.08278e-05 -0.000199707 0 
v 3.23564e-05 -0.000197365 0 
v 5.35057e-05 -0.00019271 0 
v 7.40276e-05 -0.000185795 0 
v 9.36817e-05 -0.000176702 0 
v 0.000112237 -0.000165538 0 
v 0.000129477 -0.000152432 0 
v 0.000145199 -0.00013754 0 
v 0.000159219 -0.000121035 0 
v 0.000171371 -0.000103111 0 
v 0.000181515 -8.39778e-05 0 
v 0.000189531 -6.38603e-05 0 
v 0.000195324 -4.29941e-05 0 
v 0.000198828 -2.16238e-05 0 
v 0.0002 -1.53143e-19 0 
v 0.000198828 2.16238e-05 0 
v 0.000195324 4.29941e-05 0 
v 0.000189531 6.38603e-05 0 
v 0.000181515 8.39778e-05 0 
v 0.000171371 0.000103111 0 
v 0.000159219 0.000121035 0 
v 0.000145199 0.00013754 0 
v 0.000129477 0.000152432 0 
v 0.000112237 0.000165538 0 
v 9.36817e-05 0.000176702 0 
v 7.40276e-05 0.000185795 0 
v 5.35057e-05 0.00019271 0 
v 3.23564e-05 0.000197365 0 
v 1.08278e-05 0.000199707 0 
v -1.08278e-05 0.000199707 0 
v -3.23564e-05 0.000197365 0 
v -5.35057e-05 0.00019271 0 
v -7.40276e-05 0.000185795 0 
v -9.36817e-05 0.000176702 0 
v -0.000112237 0.000165538 0 
v -0.000129477 0.000152432 0 
v -0.000145199 0.00013754 0 
v -0.000159219 0.000121035 0 
v -0.000171371 0.000103111 0 
v -0.000181515 8.39778e-05 0 
v -0.000189531 6.38603e-05 0 
v -0.000195324 4.29941e-05 0 
v -0.000198828 2.16238e-05 0 
v 0 0 0.001 
v 0 0 0 
vn -0.980581 0 0.196116 
vn -0.974832 -0.106019 0.196116 
vn -0.979143 -0.0530876 0.196116 
vn -0.957655 -0.210796 0.196116 
vn -0.967663 -0.15864 0.196116 
vn -0.92925 -0.313101 0.196116 
vn -0.944839 -0.262333 0.196116 
vn -0.889951 -0.411735 0.196116 
vn -0.910937 -0.36295 0.196116 
vn -0.840218 -0.505542 0.196116 
vn -0.866355 -0.459312 0.196116 
vn -0.780633 -0.593422 0.196116 
vn -0.811616 -0.550289 0.196116 
vn -0.711897 -0.674345 0.196116 
vn -0.747361 -0.634814 0.196116 
vn -0.634814 -0.747361 0.196116 
vn -0.674345 -0.711897 0.196116 
vn -0.550289 -0.811616 0.196116 
vn -0.593422 -0.780633 0.196116 
vn -0.459312 -0.866355 0.196116 
vn -0.505542 -0.840218 0.196116 
vn -0.36295 -0.910937 0.196116 
vn -0.411735 -0.889951 0.196116 
vn -0.262333 -0.944839 0.196116 
vn -0.313101 -0.92925 0.196116 
vn -0.15864 -0.967663 0.196116 
vn -0.210796 -0.957655 0.196116 
vn -0.0530876 -0.979143 0.196116 
vn -0.106019 -0.974832 0.196116 
vn 0.0530876 -0.979143 0.196116 
vn 1.92199e-15 -0.980581 0.196116 
vn 0.15864 -0.967663 0.196116 
vn 0.106019 -0.974832 0.196116 
vn 0.262333 -0.944839 0.196116 
vn 0.210796 -0.957655 0.196116 
vn 0.36295 -0.910937 0.196116 
vn 0.313101 -0.92925 0.196116 
vn 0.459312 -0.866355 0.196116 
vn 0.411735 -0.889951 0.196116 
vn 0.550289 -0.811616 0.196116 
vn 0.505542 -0.840218 0.196116 
vn 0.634814 -0.747361 0.196116 
vn 0.593422 -0.780633 0.196116 
vn 0.711897 -0.674345 0.196116 
vn 0.674345 -0.711897 0.196116 
vn 0.780633 -0.593422 0.196116 
vn 0.747361 -0.634814 0.196116 
vn 0.840218 -0.505542 0.196116 
vn 0.811616 -0.550289 0.196116 
vn 0.889951 -0.411735 0.196116 
vn 0.866355 -0.459312 0.196116 
vn 0.92925 -0.313101 0.196116 
vn 0.910937 -0.36295 0.196116 
vn 0.957655 -0.210796 0.196116 
vn 0.944839 -0.262333 0.196116 
vn 0.974832 -0.106019 0.196116 
vn 0.967663 -0.15864 0.196116 
vn 0.980581 -2.04124e-16 0.196116 
vn 0.979143 -0.0530876 0.196116 
vn 0.974832 0.106019 0.196116 
vn 0.979143 0.0530876 0.196116 
vn 0.957655 0.210796 0.196116 
vn 0.967663 0.15864 0.196116 
vn 0.92925 0.313101 0.196116 
vn 0.944839 0.262333 0.196116 
vn 0.889951 0.411735 0.196116 
vn 0.910937 0.36295 0.196116 
vn 0.840218 0.505542 0.196116 
vn 0.866355 0.459312 0.196116 
vn 0.780633 0.593422 0.196116 
vn 0.811616 0.550289 0.196116 
vn 0.711897 0.674345 0.196116 
vn 0.747361 0.634814 0.196116 
vn 0.634814 0.747361 0.196116 
vn 0.674345 0.711897 0.196116 
vn 0.550289 0.811616 0.196116 
vn 0.593422 0.780633 0.196116 
vn 0.459312 0.866355 0.196116 
vn 0.505542 0.840218 0.196116 
vn 0.36295 0.910937 0.196116 
vn 0.411735 0.889951 0.196116 
vn 0.262333 0.944839 0.196116 
vn 0.313101 0.92925 0.196116 
vn 0.15864 0.967663 0.196116 
vn 0.210796 0.957655 0.196116 
vn 0.0530876 0.979143 0.196116 
vn 0.106019 0.974832 0.196116 
vn -0.0530876 0.979143 0.196116 
vn 3.75422e-16 0.980581 0.196116 
vn -0.15864 0.967663 0.196116 
vn -0.106019 0.974832 0.196116 
vn -0.262333 0.944839 0.196116 
vn -0.210796 0.957655 0.196116 
vn -0.36295 0.910937 0.196116 
vn -0.313101 0.92925 0.196116 
vn -0.459312 0.866355 0.196116 
vn -0.411735 0.889951 0.196116 
vn -0.550289 0.811616 0.196116 
vn -0.505542 0.840218 0.196116 
vn -0.634814 0.747361 0.196116 
vn -0.593422 0.780633 0.196116 
vn -0.711897 0.674345 0.196116 
vn -0.674345 0.711897 0.196116 
vn -0.780633 0.593422 0.196116 
vn -0.747361 0.634814 0.196116 
vn -0.840218 0.505542 0.196116 
vn -0.811616 0.550289 0.196116 
vn -0.889951 0.411735 0.196116 
vn -0.866355 0.459312 0.196116 
vn -0.92925 0.313101 0.196116 
vn -0.910937 0.36295 0.196116 
vn -0.957655 0.210796 0.196116 
vn -0.944839 0.262333 0.196116 
vn -0.974832 0.106019 0.196116 
vn -0.967663 0.15864 0.196116 
vn -0.979143 0.0530876 0.196116 
vn 0 0 -1 
usemtl 0.615686_0.811765_0.929412_0.000000_0.000000
o mesh0
f 1//1 2//2 59//3 
f 2//2 3//4 59//5 
f 3//4 4//6 59//7 
f 4//6 5//8 59//9 
f 5//8 6//10 59//11 
f 6//10 7//12 59//13 
f 7//12 8//14 59//15 
f 8//14 9//16 59//17 
f 9//16 10//18 59//19 
f 10//18 11//20 59//21 
f 11//20 12//22 59//23 
f 12//22 13//24 59//25 
f 13//24 14//26 59//27 
f 14//26 15//28 59//29 
f 15//28 16//30 59//31 
f 16//30 17//32 59//33 
f 17//32 18//34 59//35 
f 18//34 19//36 59//37 
f 19//36 20//38 59//39 
f 20//38 21//40 59//41 
f 21//40 22//42 59//43 
f 22//42 23//44 59//45 
f 23//44 24//46 59//47 
f 24//46 25//48 59//49 
f 25//48 26//50 59//51 
f 26//50 27//52 59//53 
f 27//52 28//54 59//55 
f 28//54 29//56 59//57 
f 29//56 30//58 59//59 
f 30//58 31//60 59//61 
f 31//60 32//62 59//63 
f 32//62 33//64 59//65 
f 33//64 34//66 59//67 
f 34//66 35//68 59//69 
f 35//68 36//70 59//71 
f 36//70 37//72 59//73 
f 37//72 38//74 59//75 
f 38//74 39//76 59//77 
f 39//76 40//78 59//79 
f 40//78 41//80 59//81 
f 41//80 42//82 59//83 
f 42//82 43//84 59//85 
f 43//84 44//86 59//87 
f 44//86 45//88 59//89 
f 45//88 46//90 59//91 
f 46//90 47//92 59//93 
f 47//92 48//94 59//95 
f 48//94 49//96 59//97 
f 49//96 50//98 59//99 
f 50//98 51//100 59//101 
f 51//100 52//102 59//103 
f 52//102 53//104 59//105 
f 53//104 54//106 59//107 
f 54//106 55//108 59//109 
f 55//108 56//110 59//111 
f 56//110 57//112 59//113 
f 57//112 58//114 59//115 
f 58//114 1//1 59//116 
o mesh1
f 60//117 58//117 57//117 
f 57//117 56//117 60//117 
f 56//117 55//117 60//117 
f 55//117 54//117 60//117 
f 54//117 53//117 60//117 
f 53//117 52//117 60//117 
f 52//117 51//117 60//117 
f 51//117 50//117 60//117 
f 50//117 49//117 60//117 
f 49//117 48//117 60//117 
f 48//117 47//117 60//117 
f 47//117 46//117 60//117 
f 46//117 45//117 60//117 
f 45//117 44//117 60//117 
f 44//117 43//117 60//117 
f 43//117 42//117 60//117 
f 42//117 41//117 60//117 
f 41//117 40//117 60//117 
f 40//117 39//117 60//117 
f 39//117 38//117 60//117 
f 38//117 37//117 60//117 
f 37//117 36//117 60//117 
f 36//117 35//117 60//117 
f 35//117 34//117 60//117 
f 34//117 33//117 60//117 
f 33//117 32//117 60//117 
f 32//117 31//117 60//117 
f 31//117 30//117 60//117 
f 30//117 29//117 60//117 
f 29//117 28//117 60//117 
f 28//117 27//117 60//117 
f 27//117 26//117 60//117 
f 26//117 25//117 60//117 
f 25//117 24//117 60//117 
f 24//117 23//117 60//117 
f 23//117 22//117 60//117 
f 22//117 21//117 60//117 
f 21//117 20//117 60//117 
f 20//117 19//117 60//117 
f 19//117 18//117 60//117 
f 18//117 17//117 60//117 
f 17//117 16//117 60//117 
f 16//117 15//117 60//117 
f 15//117 14//117 60//117 
f 14//117 13//117 60//117 
f 13//117 12//117 60//117 
f 12//117 11//117 60//117 
f 11//117 10//117 60//117 
f 10//117 9//117 60//117 
f 9//117 8//117 60//117 
f 8//117 7//117 60//117 
f 7//117 6//117 60//117 
f 6//117 5//117 60//117 
f 5//117 4//117 60//117 
f 4//117 3//117 60//117 
f 3//117 2//117 60//117 
f 2//117 1//117 60//117 
f 1//117 58//117 60//117 
